/* XPM */
static char *STOCK_PIXMAP_TRASH[] = {
/* columns rows colors chars-per-pixel */
"22 22 23 1",
"  c black",
". c #0a0a0a",
"X c #131313",
"o c #1b1b1b",
"O c #222222",
"+ c #2a2a2a",
"@ c #323232",
"# c #3b3b3b",
"$ c #434343",
"% c #4a4a4a",
"& c #545454",
"* c gray36",
"= c #616161",
"- c #6c6c6c",
"; c #737373",
": c #7a7a7a",
"> c #838383",
", c #898989",
"< c #939393",
"1 c #999999",
"2 c #a1a1a1",
"3 c white",
"4 c None",
/* pixels */
"4444444444444444444444",
"4444444444444444444444",
"44444444%$##@+44444444",
"444444%&;;-=&$+O444444",
"44444&>,>>:;=&$@o44444",
"4444&,<11<,:-*%#@o4444",
"444%><2112<>;&%#@+o444",
"444&,113311,-33#@+X444",
"44$;,1<333,:333#@+O.44",
"44$;><21333333%#@+oX44",
"44#-:,<1,3333&%#++O.44",
"44#=-:>,:3333%$@+Oo.44",
"44@&=-;-333333@@+oo.44",
"44+%&**333&%333OOoX.44",
"444+$%$33$$#@33Ooo.444",
"444O@####$#@@OOoXX.444",
"4444o@@@@++++OooX.4444",
"44444o+++++OOoXX.44444",
"444444XoOOoooX..444444",
"44444444X.X...44444444",
"4444444444444444444444",
"4444444444444444444444"
};
