/* XPM */
static char *STOCK_PIXMAP_COMPILE[] = {
/* columns rows colors chars-per-pixel */
"34 34 90 1",
"  c #000000",
". c #020609",
"X c #020e0c",
"o c #021214",
"O c #0c1c1c",
"+ c gray9",
"@ c #122a24",
"# c #123234",
"$ c #322109",
"% c #303031",
"& c #373738",
"* c #3a3a3b",
"= c #3f3f40",
"- c #2a6a68",
"; c #553910",
": c #635920",
"> c #7e6f29",
", c #444445",
"< c #464648",
"1 c #4c4c4c",
"2 c #4f4f50",
"3 c #525253",
"4 c #575758",
"5 c #5c5c5c",
"6 c #616161",
"7 c #6b6b6b",
"8 c #717171",
"9 c #7b7b7b",
"0 c #367e80",
"q c #3a8280",
"w c #3e8688",
"e c #468e90",
"r c #4a9290",
"t c #4e9698",
"y c #529a98",
"u c #569ea0",
"i c #5aa2a0",
"p c #5ea6a8",
"a c #62aaa8",
"s c #6eb6b8",
"d c #72bab8",
"f c #76bec0",
"g c #7ac2c0",
"h c #7ec6c8",
"j c #815719",
"k c #815b20",
"l c #866327",
"z c #886f2d",
"x c #916c34",
"c c #99743a",
"v c #9e7641",
"b c #928237",
"n c #ac993f",
"m c #a78446",
"M c #b48b57",
"N c #b38c5a",
"B c #b49257",
"V c #b79658",
"C c #b68f63",
"Z c #bda44c",
"A c #d3bf7a",
"S c #858585",
"D c #8b8b8b",
"F c #949494",
"G c #9b9b9b",
"H c #a4a4a4",
"J c #ababab",
"K c #b3b3b3",
"L c #b9b9b9",
"P c #82cac8",
"I c #8aced0",
"U c #8ed2d0",
"Y c #92d6d8",
"T c #9cdce0",
"R c #acdcda",
"E c #afe8ed",
"W c #b4e4e2",
"Q c #d3b186",
"! c #d5b58c",
"~ c #ebd4b3",
"^ c #c5c5c5",
"/ c #cbcbcb",
"( c #d2d2d2",
") c #dadada",
"_ c #c6eef2",
"` c #f0e0c8",
"' c #ececec",
"] c #e8f2f2",
"[ c #fefefe",
"{ c None",
/* pixels */
"{{{{{{{{{{{{{{{         {{{{{{{{{{",
"{{{{{{{{{{{{{  999973+   {{{{{{{{{",
"{{{{{{{{{{{{ 69(K^/HD7    {{{{{{{{",
"{{{{{{{{{{{ 7S[['J91**5      {{{{{",
"{{{{{{{{    SK([9<15    ..O   {{{{",
"{{{{{{{ F66647H71,     #]hy.   {{{",
"{{{{{{ 5SH/K953<<     O]Yt-.     {",
"{{{{{ F8)['(F62*     .]Ry-.  O@   ",
"{{{{{ 6('[[LG4*5    .]Tq-.  .UwO  ",
"{{{{{ 6H('KS*n:     .YRq.  XIWsX  ",
"{{{{{ 9FKKS,[An:    .PRWq..h]PwX  ",
"{    78SDF4ZA[AZ:   ._PsUaR]d--.  ",
" 6SS76<63,:bZA[b>: .]EPidUPst-.   ",
"6J'/HS5,%< :bZbjBx;]Efy0qqqqo.    ",
"6D([/G5&    :>>!`Vx;fr0-....      ",
" 6S([F1,     :jNQ`Vx;0-          {",
"  5FJ/5,      ;xN!`Mv;.         {{",
"  969D7*   {  .$xNQ`Mc;       {{{{",
"    3&<    {  ]E$xNQ`Cx;   {{{{{{{",
"{            _Esp$xN!`Mx;   {{{{{{",
"{{         .]Ehp-X$xNQ`ml;   {{{{{",
"{{{{      .]Ehp0-. $xNQ`ml;   {{{{",
"{{{{{{{{ .]Eay0-.   $xNQ~Mz;   {{{",
"{{{{{{{ .]Edy0-      $xNQ~Bx;   {{",
"{{{{{{ .]Egy0-.       $xNQ~Vj;.  {",
"{{{{{ .]Ehyq-.     {   $xNQ~mj;   ",
"{{{{{ ._Pp0-.     {{{   $xNQBx$   ",
"{{{{{ .Ey0-..    {{{{{   $xVv;$   ",
"{{{{{  ..O.     {{{{{{{   $x;;;   ",
"{{{{{          {{{{{{{{{   $$;    ",
"{{{{{{        {{{{{{{{{{{         ",
"{{{{{{{      {{{{{{{{{{{{{       {",
"{{{{{{{{{{{{{{{{{{{{{{{{{{{     {{",
"{{{{{{{{{{{{{{{{{{{{{{{{{{{{{{{{{{"
};
