/* XPM */
static char *STOCK_PIXMAP_EXEC[] = {
/* columns rows colors chars-per-pixel */
"32 32 28 1",
"  c #000000",
". c #0c0c0c",
"X c #161616",
"o c #222222",
"O c #2d2d2d",
"+ c #343434",
"@ c #444444",
"# c gray29",
"$ c #535353",
"% c gray37",
"& c #686868",
"* c #727272",
"= c gray49",
"- c gray53",
"; c #929292",
": c #9b9b9b",
"> c #a4a4a4",
", c #acacac",
"< c #b4b4b4",
"1 c #bcbcbc",
"2 c gray76",
"3 c #cacaca",
"4 c gray83",
"5 c gainsboro",
"6 c #e6e6e6",
"7 c gray94",
"8 c #fefefe",
"9 c None",
/* pixels */
"9999999999999999999  99999999999",
"999999999999999 .9 O>  X 9999999",
"99999999999999 o; @#3=&%4 999999",
"99999999999  9o###$%&%$3,  99999",
"9999999999 $@o#$$$%%%&*< =- 9999",
"9999999999 @#$###$&&**=*==3> 999",
"99999999..O$#@&:,:**===-=32-+999",
"9999999 #$$@%141>>,;=--->2$X9999",
"9999999 $$@-6<*#OXO#;;;;:;=* 999",
"99999  O%@>6-$o    O>;::>>,33 99",
"9999 =%%$-5=#.  99  :::>>>251o99",
"9999 *%%&6-#. 99999 :>>>,42;= 99",
"99999X&%1<$X 999999 >>,,3>*  999",
"999 X&*=4*o 999999 <,<<13* 99999",
"99 :*=*><@ 9999999 <<<1233 99999",
"99 ;===1:o 999999 <<1122348 9999",
"999+---1= 999999 1112235565=X999",
"999X-;;<= 99999 2123334<>>,* 999",
"99O;;::<;O 99  1223336>&    9999",
"9 ;,::>,<;O  221333447:X99999999",
"9 3<>>,,<31122333445575 99999999",
"99 *<,<<111333344567778% 9999999",
"99 ,<1<12233344556,,785> 9999999",
"9 3231222334455573&O+,,&o9999999",
"99 4-:435445677681#X  #+ 9999999",
"999X 35415573-788<O 99  99999999",
"999 <76:%676:+#88< 9999999999999",
"9999 62& 883*X 8<: 9999999999999",
"99999 -  88>$ 9 *# 9999999999999",
"999999 99 :;O 99  99999999999999",
"999999999 -o 9999999999999999999",
"9999999999  99999999999999999999"
};
