/* XPM */
static char *STOCK_PIXMAP_OPEN[] = {
/* columns rows colors chars-per-pixel */
"22 22 71 1",
"  c black",
". c #0b0704",
"X c #150f09",
"o c #141413",
"O c #191919",
"+ c #25170c",
"@ c #26190e",
"# c #2b1b0e",
"$ c #271c11",
"% c #342111",
"& c #3b2714",
"* c #262625",
"= c #2b2b2b",
"- c #343433",
"; c #383837",
": c #422a16",
"> c #472e19",
", c #4a3019",
"< c #7e532c",
"1 c #53504d",
"2 c #5c5c5b",
"3 c #676766",
"4 c #6d6864",
"5 c #6d6d6c",
"6 c #7d7d7b",
"7 c #80532c",
"8 c #855e38",
"9 c #a66d3a",
"0 c #aa6f3b",
"q c #b57740",
"w c #ea9e58",
"e c #eea059",
"r c #f2a45b",
"t c #e5a566",
"y c #f4ad6a",
"u c #f8ac62",
"i c #fcb36a",
"p c #f6b675",
"a c #fdb773",
"s c #feb971",
"d c #fec27f",
"f c #818180",
"g c #8c8c8b",
"h c #90908f",
"j c #949493",
"k c #9c9c9b",
"l c #a0a09e",
"z c #a4a4a3",
"x c #a9a9a7",
"c c #adadac",
"v c #b0b0af",
"b c #b3b3b2",
"n c #b8b8b7",
"m c #bbbbba",
"M c #c0c0be",
"N c #fec282",
"B c #fec88a",
"V c #fecd92",
"C c #fed39a",
"Z c #c3c3c2",
"A c #c8c8c6",
"S c #cccccb",
"D c #d0d0ce",
"F c #d3d3d2",
"G c #d8d8d6",
"H c #dcdcdb",
"J c #e0e0df",
"K c #e3e3e3",
"L c #eaeae9",
"P c #f3f3f3",
"I c None",
/* pixels */
"IIIIIIIIIIIIIIIIIIIIII",
"IIIIIIIII     IIIIIIII",
"IIIIIII         I IIII",
"IIIIII  IIIIII    IIII",
"IIIII IIIIIIIII   IIII",
"IIIIIIIIIIIIII    IIII",
"II@@$@IIIIIIIIIIIIIIII",
"I&yNNs&IIIIIIIIIIIIIII",
"&tVCVBp&XXXXXXXXIIIIII",
"&NCVNiuuuuuuuuuu&IIIII",
"&BCNe7,,,,>&&%%#O@    ",
"&BBa01PPPPLKHGDAZmmvv-",
"&NNr,AKKKGDAMnvxkjgf2o",
"&Ni01PKLLKHFSMnczkg6;I",
"&sw,SGKLKKHGSZnbxlg5 I",
"&i01HGHKKHGSAMnccx8=II",
"&r,cAFHHGGDAMmbxkh2oII",
"&q1SZDFFDSAMmbczkf;III",
"&>cbmZZAZZmnbxzkg3 III",
".4Acbnnmnnbcxzkhf=IIII",
"ohkkkllkkkjjggg62oIIII",
"o-===========***oIIIII"
};
